<?xml version="1.0" encoding="UTF-8" standalone="no"?>
<!DOCTYPE svg PUBLIC "-//W3C//DTD SVG 1.1//EN"
 "http://www.w3.org/Graphics/SVG/1.1/DTD/svg11.dtd">
<!-- Generated by graphviz version 2.43.0 (0)
 -->
<!-- Title: MLRDS Pages: 1 -->
<svg width="748pt" height="126pt"
 viewBox="0.00 0.00 747.63 126.04" xmlns="http://www.w3.org/2000/svg" xmlns:xlink="http://www.w3.org/1999/xlink">
<g id="graph0" class="graph" transform="scale(1 1) rotate(0) translate(4 122.04)">
<title>MLRDS</title>
<polygon fill="white" stroke="transparent" points="-4,4 -4,-122.04 743.63,-122.04 743.63,4 -4,4"/>
<!-- MirrorA -->
<g id="node1" class="node">
<title>MirrorA</title>
<polygon fill="lightblue" stroke="black" points="152,-82.04 0,-82.04 0,-44.04 152,-44.04 152,-82.04"/>
<text text-anchor="middle" x="76" y="-66.84" font-family="Times,serif" font-size="14.00">MirrorA</text>
<text text-anchor="middle" x="76" y="-51.84" font-family="Times,serif" font-size="14.00">Initiating Interface</text>
</g>
<!-- MirrorB -->
<g id="node2" class="node">
<title>MirrorB</title>
<polygon fill="lightblue" stroke="black" points="739.63,-82.04 582.63,-82.04 582.63,-44.04 739.63,-44.04 739.63,-82.04"/>
<text text-anchor="middle" x="661.13" y="-66.84" font-family="Times,serif" font-size="14.00">MirrorB</text>
<text text-anchor="middle" x="661.13" y="-51.84" font-family="Times,serif" font-size="14.00">Archive &amp; Reflector</text>
</g>
<!-- MirrorA&#45;&gt;MirrorB -->
<g id="edge1" class="edge">
<title>MirrorA&#45;&gt;MirrorB</title>
<path fill="none" stroke="black" d="M144.65,-82.06C159.16,-85.38 174.5,-88.31 189,-90.04 346.4,-108.74 388.19,-108.35 545.63,-90.04 557.2,-88.69 569.3,-86.6 581.12,-84.17"/>
<polygon fill="black" stroke="black" points="581.92,-87.58 590.96,-82.06 580.45,-80.74 581.92,-87.58"/>
<text text-anchor="middle" x="367.32" y="-106.84" font-family="Times,serif" font-size="14.00">forward&#45;projection</text>
</g>
<!-- Bridge -->
<g id="node3" class="node">
<title>Bridge</title>
<polygon fill="lightgrey" stroke="black" points="367.32,-81.04 189.18,-63.04 367.32,-45.04 545.45,-63.04 367.32,-81.04"/>
<text text-anchor="middle" x="367.32" y="-59.34" font-family="Times,serif" font-size="14.00">Quantum&#45;Echo Feedback</text>
</g>
<!-- MirrorA&#45;&gt;Bridge -->
<g id="edge3" class="edge">
<title>MirrorA&#45;&gt;Bridge</title>
<path fill="none" stroke="black" d="M152.26,-63.04C160.8,-63.04 169.77,-63.04 179,-63.04"/>
<polygon fill="black" stroke="black" points="179.1,-66.54 189.1,-63.04 179.1,-59.54 179.1,-66.54"/>
</g>
<!-- MirrorB&#45;&gt;MirrorA -->
<g id="edge2" class="edge">
<title>MirrorB&#45;&gt;MirrorA</title>
<path fill="none" stroke="black" d="M618.97,-43.94C597.59,-35.06 570.75,-25.5 545.63,-21.04 389.57,6.68 344.96,7.25 189,-21.04 167.94,-24.85 145.68,-32.41 126.6,-40.07"/>
<polygon fill="black" stroke="black" points="125.13,-36.89 117.22,-43.94 127.8,-43.36 125.13,-36.89"/>
<text text-anchor="middle" x="367.32" y="-24.84" font-family="Times,serif" font-size="14.00">inward&#45;recursion</text>
</g>
<!-- Bridge&#45;&gt;MirrorB -->
<g id="edge4" class="edge">
<title>Bridge&#45;&gt;MirrorB</title>
<path fill="none" stroke="black" d="M545.64,-63.04C554.82,-63.04 563.82,-63.04 572.5,-63.04"/>
<polygon fill="black" stroke="black" points="572.52,-66.54 582.52,-63.04 572.52,-59.54 572.52,-66.54"/>
</g>
</g>
</svg>
